<svg xmlns="http://www.w3.org/2000/svg" viewBox="0 0 1100 1200" preserveAspectRatio="xMidYMid slice"><rect width="1100" height="1200" fill="#1b2a26"/><rect width="1100" height="1200" fill="#c89a58" opacity=".18"/><circle cx="560" cy="420" r="120" fill="#263a34"/><path d="M330 1160 C360 760 450 590 560 590 C670 590 760 760 790 1160Z" fill="#101a18"/><g fill="none" stroke="#f6f2ea" stroke-opacity=".18"><path d="M120 250 C290 160 480 175 650 260 S970 330 1110 240"/><path d="M80 340 C280 255 500 270 690 365 S960 435 1130 350"/><path d="M60 450 C300 365 520 390 710 500 S980 560 1130 480"/></g><path d="M0 900 C260 790 520 840 760 930 C930 990 1040 940 1100 900 L1100 1200 L0 1200Z" fill="#0d1714" opacity=".72"/></svg>
