<svg xmlns="http://www.w3.org/2000/svg" viewBox="0 0 1200 1200" preserveAspectRatio="xMidYMid slice"><defs><linearGradient id="g" x1="0" y1="0" x2="0" y2="1"><stop stop-color="#d2ad70"/><stop offset=".45" stop-color="#5f6b58"/><stop offset="1" stop-color="#101a18"/></linearGradient></defs><rect width="1200" height="1200" fill="url(#g)"/><path d="M0 650 C180 560 280 610 430 675 C640 765 760 650 930 590 C1080 540 1150 560 1200 520 L1200 1200 L0 1200Z" fill="#192822"/><path d="M0 780 C260 690 420 735 640 820 C820 890 980 780 1200 740 L1200 1200 L0 1200Z" fill="#0d1714"/><g opacity=".25" stroke="#f6f2ea" fill="none"><path d="M-50 460 C180 340 420 370 620 500 S1030 610 1260 460"/><path d="M-50 545 C180 430 420 455 640 585 S1030 700 1260 560"/><path d="M-50 635 C210 535 460 570 680 700 S1050 790 1260 660"/></g></svg>
