<svg xmlns="http://www.w3.org/2000/svg" viewBox="0 0 900 900"><g fill="none" stroke="#b87545" stroke-width="1.2" opacity=".34"><path d="M40 620C135 520 255 570 330 455C420 315 600 370 710 210C790 92 860 120 910 40"/><path d="M20 690C130 600 270 650 380 510C500 360 650 430 760 285C840 180 905 195 960 110"/><path d="M-10 760C110 690 275 735 420 575C560 425 700 500 810 360C900 250 950 285 1010 190"/><path d="M-40 830C95 775 285 815 465 640C620 490 740 575 855 430C940 325 990 360 1040 280"/><path d="M55 540C145 430 240 485 300 370C380 215 560 280 660 135C750 5 820 35 885-35"/></g></svg>
