<svg xmlns="http://www.w3.org/2000/svg" viewBox="0 0 1600 1000"><g fill="none" stroke="#f6f2ea" stroke-opacity=".18" stroke-width="2"><path d="M-60 220 C190 80 390 110 590 230 S1010 370 1260 210 1660 150 1750 230"/><path d="M-80 310 C170 170 400 190 610 310 S1020 455 1280 305 1660 270 1740 350"/><path d="M-80 405 C190 280 420 300 650 420 S1030 540 1300 410 1640 390 1740 470"/><path d="M-70 520 C210 410 470 420 700 540 S1120 660 1340 520 1640 530 1740 610"/><path d="M-40 660 C240 560 500 585 720 700 S1120 820 1370 690 1650 705 1740 790"/><path d="M-40 805 C250 720 520 750 760 860 S1160 960 1390 835 1640 850 1740 930"/></g></svg>
